<svg width="39" height="24" viewBox="0 0 39 24" fill="none" xmlns="http://www.w3.org/2000/svg">
<path d="M0.574219 24H39.0001V0H0.574219V24Z" fill="white"/>
<path d="M9.0501 13.2942L9.79349 14.1447L10.5616 13.2998H11.1771V13.5609L10.2144 14.6231L11.1771 15.7588V13.2998H12.9146C13.2432 13.2998 13.725 13.4514 13.725 14.1313C13.725 15.0851 13.091 15.0964 12.7438 15.0964H11.8415V16.0198H10.5554L9.76976 15.1149L8.96498 16.0132H6.40776V13.2937H9.0501V13.2942ZM16.9219 13.2942H19.1134V13.8805H17.5926V14.3898H19.0711V14.9057H17.5926V15.4443H19.1134V16.0137H16.9219V13.2942ZM14.7129 16.0204H14.0423V13.3004H15.7854C16.1151 13.3004 16.5902 13.4463 16.5902 14.0285C16.5902 14.3574 16.4927 14.5995 16.127 14.7819C16.4437 14.8184 16.566 15.025 16.566 15.4618L16.5902 16.0204H15.9376L15.9196 15.5219C15.9139 15.2917 15.8221 15.0609 15.591 15.0609H14.7129V16.0204ZM23.3219 14.3543C24.1468 14.3955 24.2149 14.806 24.2149 15.2429C24.2149 15.7526 23.7945 16.026 23.3555 16.026H21.9476V15.4438H23.0449C23.2311 15.4438 23.5082 15.4438 23.5082 15.1817C23.5082 15.0573 23.4592 14.9787 23.2611 14.9571C23.1071 14.9422 22.9528 14.9316 22.7983 14.9253C22.0539 14.9057 21.8811 14.5373 21.8811 14.0882C21.8811 13.5784 22.2407 13.2993 22.6797 13.2993H24.0875V13.8826H23.0573C22.8231 13.8857 22.5698 13.8548 22.5698 14.1195C22.5698 14.286 22.6951 14.3194 22.853 14.3353C22.9077 14.3358 23.2735 14.3543 23.3219 14.3543ZM20.8106 14.3543C21.635 14.3955 21.7036 14.806 21.7036 15.2429C21.7036 15.7526 21.2827 16.026 20.8442 16.026H19.4358V15.4438H20.5331C20.7188 15.4438 20.9969 15.4438 20.9969 15.1817C20.9969 15.0573 20.9479 14.9787 20.7498 14.9571C20.661 14.9448 20.335 14.9263 20.287 14.9253C19.5426 14.9057 19.3698 14.5373 19.3698 14.0882C19.3698 13.5784 19.7293 13.2993 20.1678 13.2993H21.5762V13.8826H20.546C20.3113 13.8857 20.0585 13.8548 20.0585 14.1195C20.0585 14.286 20.1833 14.3194 20.3422 14.3353C20.3964 14.3358 20.7621 14.3543 20.8106 14.3543ZM11.9757 11.345H11.305V8.62503H13.0482C13.3773 8.62503 13.8535 8.77098 13.8535 9.35321C13.8535 9.68158 13.756 9.92465 13.3902 10.1066C13.707 10.143 13.8292 10.3496 13.8292 10.7864L13.8535 11.345H13.2014L13.1828 10.8471C13.1766 10.6163 13.0858 10.3861 12.8537 10.3861H11.9762V11.345H11.9757ZM14.195 11.345H14.8651V8.62195H14.195V11.345ZM8.72974 8.62503H10.9207V9.21086H9.40142V9.72115H10.8789V10.2376H9.40142V10.7746H10.9207V11.345H8.72974V8.62503ZM3.83661 11.345H5.18667V9.32649L6.08224 11.345H6.69201L7.60873 9.35989V11.345H8.27886V8.62503H7.20944L6.38661 10.4498L5.56688 8.62503H4.51551V11.2448L3.34498 8.62503H2.4587L1.26392 11.345H1.97119L2.23274 10.7381H3.57042L3.83661 11.345ZM18.7229 10.7397H17.3857L17.1236 11.3466H16.2394C15.496 11.3466 15.1664 10.7258 15.1824 9.97295C15.2051 8.85577 15.868 8.62349 16.1729 8.62349H17.0478V9.21549H16.6336C16.1883 9.21549 15.8412 9.26174 15.8412 9.89895V10.0963C15.8443 10.5757 16.0965 10.6893 16.258 10.7227C16.2977 10.732 16.371 10.7356 16.3978 10.7335L16.6877 10.732L17.6111 8.62503H18.4985L19.6411 11.178V8.62349H20.6311L21.7619 10.5069V8.62349H22.432V11.3466H21.5179L20.3113 9.35475V11.3466H18.9885L18.7229 10.7397Z" fill="#00ACEC"/>
<path d="M24.0933 12.8759V0.768799H1.32178V10.1308L2.17556 8.21295H3.62622L4.10186 9.35377V8.21295H5.86875L6.40527 9.34247L6.9294 8.21295H13.1587C13.4022 8.21295 13.7313 8.29825 13.8783 8.56496V8.21295H15.1825V8.6256C15.3532 8.39538 15.6091 8.21295 16.1085 8.21295H18.7663L19.2538 9.31729V8.21295H20.8267L21.387 9.17237V8.21295H22.8252V11.7577H21.2776L20.6312 10.714V11.7577H18.6688L18.352 11.0655H17.7299L17.4374 11.7577H16.206C15.9377 11.7341 15.3166 11.6241 15.1825 11.212V11.7577H12.8177V10.9812C12.8177 10.8713 12.7202 10.7382 12.586 10.7382H12.3302V11.7577H7.29516V10.9566L6.91753 11.7577H5.89351L5.50351 10.9442V11.7577H3.49209L3.22383 11.1267H2.57743L2.29731 11.7577H1.32178V23.2086H24.0933V16.1905C23.9715 16.3246 23.7765 16.4336 23.484 16.4336H21.5814V16.1664C21.4354 16.3246 21.2286 16.4336 20.8989 16.4336H15.5358V15.6931C15.5235 15.5954 15.5725 15.3894 15.3042 15.3894H15.085V16.4336H13.6585V15.2306C13.512 15.4747 13.1958 15.486 12.9884 15.4983H12.2321V16.4336H10.3306L9.7817 15.7655L9.1967 16.4336H5.96677V12.8759H9.2457L9.81833 13.5193L10.4039 12.8759H13.0003C13.1829 12.8872 13.5301 12.9726 13.6585 13.1668V12.8759H15.8773C16.0724 12.8759 16.45 12.9602 16.6089 13.2151V12.8759H19.3879V13.191C19.5339 12.9972 19.7661 12.8759 20.1189 12.8759H21.8987V13.1797C22.0328 12.9849 22.3867 12.8759 22.5941 12.8759H24.0933ZM30.3602 12.5666C30.3602 13.0214 28.6222 12.5198 28.6222 13.6257C28.6222 14.1309 29.0323 14.3595 29.4935 14.3595C29.8572 14.3595 30.1363 14.2845 30.4118 14.0291L30.5108 14.2891H31.3873C31.3373 14.1946 31.3295 14.0712 31.3295 13.9325V12.7948C31.3295 12.2141 31.2594 11.787 30.1038 11.787C29.1391 11.787 28.7708 12.0887 28.7708 12.6036H29.703C29.7262 12.3949 29.9083 12.3677 30.0434 12.3677C30.1466 12.3677 30.3602 12.3908 30.3602 12.5666ZM35.4034 13.9613V14.2866H36.2742V10.9432H35.3059V12.0995C35.1001 11.8579 34.886 11.7839 34.5785 11.7839C33.9956 11.7839 33.5437 12.3081 33.5437 13.1164C33.5437 13.8035 33.9167 14.3559 34.6528 14.3559C34.966 14.3559 35.1754 14.2588 35.4034 13.9613ZM33.2924 12.6211V11.7978C33.2507 11.7932 33.2084 11.7839 33.1661 11.7839C32.7895 11.7839 32.5511 11.9648 32.416 12.3461H32.4067V11.8538H31.5261V14.286H32.4949V13.3282C32.4949 12.8035 32.6956 12.6175 33.0918 12.6175L33.2924 12.6211ZM27.5068 12.2151C27.4738 11.8677 27.2546 11.6678 26.91 11.6678C26.5231 11.6678 26.2899 11.9977 26.2899 12.6426C26.2899 13.1118 26.3925 13.5522 26.9512 13.5522C27.3062 13.5522 27.4738 13.3071 27.5161 12.9864H28.5737C28.4767 13.8498 27.8561 14.3688 26.9714 14.3688C25.8622 14.3688 25.1905 13.6925 25.1905 12.6051C25.1905 11.5234 25.9267 10.8502 26.8641 10.8502C27.8891 10.8502 28.4628 11.3564 28.5515 12.2146H27.5068V12.2151Z" fill="#00ACEC"/>
<path d="M11.8421 14.5389H12.6773C12.9512 14.5389 13.0487 14.3806 13.0487 14.1987C13.0487 14.0651 12.9605 13.8868 12.6799 13.8868H11.8421V14.5389ZM8.59926 13.8806H7.07896V14.3898H8.55644V14.9058H7.07896V15.4443H8.62402L9.36173 14.6237L8.70914 13.8832L8.59926 13.8806ZM14.713 14.5029H15.5482C15.8221 14.5029 15.9196 14.3811 15.9196 14.1987C15.9196 14.0651 15.8314 13.8868 15.5508 13.8868H14.713V14.5029ZM11.9757 9.82757H12.8109C13.0854 9.82757 13.1823 9.7063 13.1823 9.52387C13.1823 9.39077 13.0941 9.21091 12.8135 9.21091H11.9757V9.82757ZM3.31148 10.1529H2.49536L2.89568 9.20166L3.31148 10.1529ZM18.0471 9.2032L17.6478 10.1539H18.467L18.0471 9.2032Z" fill="white"/>
<path d="M38.0778 15.0316L29.8748 23.2024H31.0396L38.0778 16.192V15.0316Z" fill="#3B4095"/>
<path d="M38.0777 17.318L32.1709 23.2025H33.3347L38.0777 18.4789V17.318Z" fill="#00ACEC"/>
<path d="M38.0778 19.6047L34.4651 23.2024H35.631L38.0778 20.7646V19.6047Z" fill="#6CB35E"/>
<path d="M24.9265 21.9157C24.9269 21.746 24.9608 21.578 25.0263 21.4214C25.0918 21.2648 25.1877 21.1226 25.3084 21.0029C25.4291 20.8832 25.5724 20.7884 25.7299 20.7239C25.8874 20.6593 26.0562 20.6264 26.2265 20.6268C26.3965 20.6267 26.5648 20.6599 26.7218 20.7247C26.8789 20.7894 27.0215 20.8843 27.1417 21.004C27.2619 21.1237 27.3572 21.2659 27.4222 21.4223C27.4871 21.5787 27.5205 21.7464 27.5204 21.9157C27.5211 22.0854 27.4882 22.2537 27.4235 22.4108C27.3589 22.5678 27.2637 22.7107 27.1435 22.831C27.0233 22.9514 26.8804 23.0469 26.7231 23.1121C26.5657 23.1774 26.397 23.211 26.2265 23.2112C26.0557 23.2114 25.8865 23.178 25.7287 23.113C25.5708 23.0479 25.4274 22.9525 25.3066 22.8321C25.1859 22.7118 25.0901 22.5689 25.0249 22.4116C24.9597 22.2544 24.9262 22.0858 24.9265 21.9157Z" fill="#00ACEC"/>
<path d="M27.3641 21.9157C27.3641 21.7669 27.3348 21.6195 27.2776 21.4821C27.2205 21.3446 27.1367 21.2197 27.031 21.1145C26.9254 21.0093 26.7999 20.9259 26.6619 20.869C26.5239 20.8121 26.3759 20.783 26.2265 20.7831C26.077 20.7827 25.9287 20.8117 25.7904 20.8684C25.6521 20.9251 25.5263 21.0085 25.4204 21.1137C25.3144 21.2189 25.2304 21.3439 25.173 21.4815C25.1156 21.6191 25.086 21.7667 25.0859 21.9157C25.0859 22.2166 25.2059 22.5052 25.4196 22.718C25.6332 22.9308 25.9229 23.0503 26.225 23.0503C26.5271 23.0503 26.8168 22.9308 27.0304 22.718C27.2441 22.5052 27.3641 22.2166 27.3641 21.9157Z" fill="white"/>
<path d="M26.8713 22.6397H26.6614L26.2461 21.9732H25.9211V22.6397H25.7441V21.1947H26.3756C26.4978 21.1947 26.6201 21.2019 26.729 21.2661C26.8378 21.3273 26.8915 21.4558 26.8915 21.577C26.8915 21.8617 26.6918 21.9666 26.4334 21.9732L26.8713 22.6397Z" fill="#00ACEC"/>
<path d="M26.1927 21.8345C26.3965 21.8345 26.7122 21.8684 26.7122 21.5735C26.7122 21.3504 26.5152 21.3237 26.3351 21.3237H25.9214V21.8345H26.1927ZM30.36 13.212C30.3626 13.6673 30.2223 13.8112 29.8823 13.8112C29.6909 13.8112 29.5743 13.7275 29.5743 13.6072C29.5749 13.2907 30.0438 13.3652 30.36 13.212ZM35.3383 13.0933C35.3383 13.376 35.2315 13.6591 34.8956 13.6591C34.5794 13.6591 34.5144 13.3626 34.5144 13.1067C34.5144 12.8384 34.6026 12.5311 34.9245 12.5311C35.2454 12.5311 35.3383 12.8235 35.3383 13.0933Z" fill="white"/>
</svg>
