<svg width="92" height="17" viewBox="0 0 92 17" fill="none" xmlns="http://www.w3.org/2000/svg">
<path fill-rule="evenodd" clip-rule="evenodd" d="M0 0.937584H4.00036C4.74634 0.937584 5.49183 1.00777 6.16946 1.11306C9.6948 1.63898 12.4746 3.56771 12.4746 8.68657C12.4746 13.7708 9.6948 15.7337 6.16946 16.2245C5.49183 16.3298 4.74585 16.3644 4.00036 16.3644H0V0.937584ZM90.7121 3.28644C91.254 3.28644 91.6612 2.8658 91.6612 2.23459C91.6612 1.60389 91.254 1.14765 90.7121 1.14765C90.1692 1.14765 89.7621 1.60338 89.7621 2.23459C89.7621 2.8658 90.1692 3.28644 90.7121 3.28644ZM90.7121 0.902489C90.8813 0.902422 91.0488 0.936831 91.205 1.00375C91.3613 1.07067 91.5033 1.16879 91.6229 1.2925C91.7425 1.41621 91.8374 1.56309 91.9021 1.72474C91.9668 1.88639 92.0001 2.05964 92 2.23459C92.0001 2.40959 91.9669 2.58289 91.9022 2.7446C91.8376 2.90631 91.7427 3.05324 91.6231 3.17701C91.5035 3.30077 91.3615 3.39894 91.2052 3.46589C91.0488 3.53284 90.8813 3.56727 90.7121 3.56721C90.543 3.56721 90.3755 3.53274 90.2192 3.46578C90.0629 3.39883 89.9209 3.30069 89.8013 3.17697C89.6817 3.05325 89.5868 2.90637 89.522 2.74472C89.4573 2.58307 89.424 2.40981 89.424 2.23485C89.424 2.05988 89.4573 1.88662 89.522 1.72497C89.5868 1.56333 89.6817 1.41645 89.8013 1.29272C89.9209 1.169 90.0629 1.07086 90.2192 1.00391C90.3755 0.936949 90.543 0.902489 90.7121 0.902489V0.902489ZM90.7121 2.44516L90.6438 2.33988H90.4746V2.97109H90.2027V1.46351H90.779C91.1178 1.46351 91.3219 1.60389 91.3219 1.91924C91.3219 2.1644 91.1517 2.30478 90.9147 2.33988L91.3219 2.97109H91.0165L90.7121 2.44516ZM90.7121 1.67408H90.7456C90.8808 1.67408 91.0165 1.70918 91.0165 1.88465C91.0165 2.09523 90.8813 2.12981 90.7456 2.12981H90.4751V1.67408H90.7121ZM81.2883 7.49384C82.407 7.35346 83.3216 6.86263 83.3216 5.39014C83.3216 3.98784 82.4075 3.60179 81.2883 3.42682H79.2539V7.56454H80.203C80.5762 7.56454 80.949 7.52893 81.2883 7.49384V7.49384ZM81.2883 0.97268C83.9324 1.07797 86.3729 1.63898 86.3729 5.14498C86.3729 6.96842 85.2542 8.476 83.39 8.72116C84.1699 8.82645 84.6444 9.63314 84.9154 10.3345L87.2551 16.3644H84.0003L82.2378 11.5263C81.9669 10.8249 81.7299 10.4037 81.2888 10.1586C81.0517 10.0187 80.679 9.94798 80.2035 9.94798H79.2544V16.3644H76.3393V0.937584H79.4914C80.0673 0.937584 80.7119 0.937584 81.2883 0.97268ZM54.1355 5.56562C54.4743 6.47708 54.6434 7.49435 54.6434 8.65148C54.6434 9.73843 54.4743 10.7903 54.1355 11.7368C53.0846 14.7159 50.5423 16.6451 47.0514 16.6451C42.3734 16.6451 39.3899 13.3492 39.3899 8.65097C39.3899 3.91714 42.4407 0.691915 47.0514 0.691915C50.5423 0.691915 53.0846 2.58555 54.1355 5.56562V5.56562ZM54.1355 2.30478L59.2885 16.3644H60.3728L66.1016 0.937584H63.0503L60 9.07161L56.7462 0.937584H53.6275L54.1355 2.30478V2.30478ZM66.8476 0.937584H75.525V3.42682H69.7961V7.21358H75.016V9.59702H69.7966V13.9453H75.5594V16.3644H66.8481V0.937584H66.8476V0.937584ZM6.16946 3.67249C5.66099 3.49701 5.1186 3.42682 4.57669 3.42682H2.91557V13.9453H4.57669C5.11909 13.9453 5.66149 13.84 6.16946 13.6651C7.9663 12.9982 9.42384 11.2806 9.42384 8.68607C9.42433 6.09154 7.9663 4.30319 6.16946 3.67249V3.67249ZM13.6273 0.937584H16.5763V16.3644H13.6273V0.937584ZM26.0341 5.03969C25.0171 4.37338 23.9328 3.70708 22.7802 3.56721C21.7293 3.42682 20.6106 3.74217 20.6106 5.28485C20.6106 7.94957 27.0515 6.82753 27.0515 11.982C27.0515 15.3476 24.4752 16.9956 21.5262 16.6451C19.933 16.4691 19.0178 15.9783 17.7634 15.1024V11.9464C18.7469 12.5079 20.2039 13.5944 21.3566 13.8049C22.611 14.0155 23.9668 13.6289 23.9668 12.2272C23.9668 9.24709 17.5603 10.4739 17.5603 5.38963C17.5603 1.95383 20.0687 0.691406 22.645 0.691406C23.9333 0.691406 25.0516 1.18223 26.0346 2.0937V5.03969H26.0341V5.03969ZM38.644 14.8217C37.898 15.8044 36.1356 16.3644 34.949 16.4696C30.3728 16.7855 27.322 14.1559 27.322 8.93174C27.322 3.67249 30 0.587137 34.949 0.867901C35.932 0.902997 37.5252 1.25344 38.5761 2.16491V5.11039C37.3216 4.30421 36.0338 3.74319 34.949 3.7081C31.9321 3.60281 30.3728 5.56612 30.3728 8.72167C30.3728 11.8777 31.8303 13.63 34.949 13.4901C36.169 13.4555 37.9998 12.4382 38.644 11.8777V14.8217V14.8217Z" fill="url(#paint0_linear_3013_188)"/>
<defs>
<linearGradient id="paint0_linear_3013_188" x1="46" y1="0.691406" x2="46" y2="16.6914" gradientUnits="userSpaceOnUse">
<stop stop-color="white"/>
<stop offset="1" stop-color="white" stop-opacity="0.75"/>
</linearGradient>
</defs>
</svg>
